<?xml version="1.0" encoding="utf-8"?>
<!-- Generator: Adobe Illustrator 16.0.0, SVG Export Plug-In . SVG Version: 6.00 Build 0)  -->
<!DOCTYPE svg PUBLIC "-//W3C//DTD SVG 1.1//EN" "http://www.w3.org/Graphics/SVG/1.1/DTD/svg11.dtd">
<svg version="1.1" id="Layer_1" xmlns="http://www.w3.org/2000/svg" xmlns:xlink="http://www.w3.org/1999/xlink" x="0px" y="0px"
	 width="310.609px" height="235.203px" viewBox="0 0 310.609 235.203" enable-background="new 0 0 310.609 235.203"
	 xml:space="preserve">
<g>
	<g>
		<g enable-background="new    ">
			<path fill="#52CAF5" d="M269.234,207.992c3.592-6.721,6.173-12.463,7.742-17.229c1.567-4.764,2.748-10.508,3.543-17.227
				c0.528-4.443,0.793-8.259,0.793-11.447c0-2.657-0.207-5.914-0.623-9.768s-0.926-7.299-1.531-10.337
				c-0.83-4.214-1.993-8.237-3.486-12.073c-1.492-3.834-3.639-8.391-6.438-13.667l-0.963-1.766h1.766
				c3.189,3.494,5.809,6.615,7.859,9.368c2.049,2.753,3.893,5.667,5.522,8.741c2.47,4.595,4.424,9.56,5.866,14.894
				c1.443,5.334,2.164,10.278,2.164,14.835s-0.702,9.406-2.106,14.551c-1.403,5.146-3.379,10.071-5.924,14.778
				c-3.265,5.999-7.726,12.035-13.383,18.11h-1.767L269.234,207.992z"/>
		</g>
		<g enable-background="new    ">
			<path fill="#010101" d="M237.727,223.326c4.775-8.937,8.207-16.572,10.293-22.908s3.656-13.973,4.711-22.908
				c0.705-5.907,1.058-10.981,1.058-15.223c0-3.533-0.276-7.863-0.83-12.988c-0.554-5.123-1.229-9.705-2.035-13.746
				c-1.104-5.604-2.651-10.954-4.638-16.055c-1.986-5.1-4.84-11.158-8.559-18.175l-1.283-2.348h2.349
				c4.242,4.646,7.726,8.798,10.451,12.458c2.728,3.661,5.176,7.534,7.346,11.624c3.283,6.109,5.884,12.712,7.802,19.805
				c1.92,7.094,2.877,13.67,2.877,19.729s-0.934,12.509-2.802,19.35c-1.866,6.842-4.493,13.393-7.877,19.652
				c-4.341,7.978-10.272,16.005-17.797,24.082h-2.349L237.727,223.326z"/>
		</g>
		<g enable-background="new    ">
			<path fill="#010101" d="M296.395,192.38c2.299-4.301,3.949-7.976,4.953-11.023s1.76-6.725,2.269-11.023
				c0.339-2.842,0.508-5.283,0.508-7.324c0-1.7-0.133-3.783-0.399-6.25c-0.266-2.465-0.592-4.67-0.979-6.613
				c-0.531-2.697-1.275-5.271-2.23-7.727c-0.955-2.453-2.328-5.369-4.119-8.746l-0.617-1.129h1.132
				c2.04,2.234,3.717,4.232,5.028,5.994s2.49,3.625,3.533,5.594c1.58,2.939,2.831,6.117,3.754,9.529
				c0.925,3.414,1.386,6.578,1.386,9.492c0,2.916-0.449,6.02-1.349,9.312c-0.898,3.291-2.162,6.443-3.791,9.455
				c-2.088,3.84-4.942,7.701-8.562,11.59h-1.131L296.395,192.38z"/>
		</g>
	</g>
	<g>
		<g enable-background="new    ">
			<path fill="#52CAF5" d="M42.338,209.755h-1.766c-5.658-6.074-10.119-12.11-13.383-18.109c-2.545-4.707-4.52-9.633-5.924-14.777
				c-1.404-5.146-2.106-9.996-2.106-14.552s0.721-9.501,2.164-14.835c1.442-5.334,3.397-10.299,5.866-14.893
				c1.631-3.075,3.474-5.989,5.523-8.742c2.051-2.752,4.67-5.874,7.859-9.368h1.766l-0.964,1.766
				c-2.798,5.277-4.943,9.834-6.437,13.668c-1.493,3.834-2.656,7.858-3.486,12.072c-0.605,3.038-1.115,6.482-1.531,10.338
				c-0.416,3.854-0.624,7.108-0.624,9.766c0,3.189,0.265,7.006,0.794,11.447c0.794,6.721,1.975,12.463,3.543,17.228
				c1.569,4.767,4.15,10.508,7.741,17.228L42.338,209.755z"/>
		</g>
		<g enable-background="new    ">
			<path fill="#010101" d="M74.164,225.673h-2.348c-7.523-8.078-13.455-16.105-17.797-24.084c-3.383-6.26-6.009-12.811-7.876-19.651
				c-1.868-6.841-2.802-13.291-2.802-19.351c0-6.059,0.959-12.633,2.877-19.728c1.919-7.093,4.519-13.694,7.801-19.805
				c2.17-4.089,4.62-7.963,7.346-11.624c2.727-3.66,6.211-7.812,10.451-12.458h2.348l-1.281,2.348
				c-3.721,7.018-6.573,13.076-8.559,18.177c-1.986,5.1-3.532,10.451-4.638,16.055c-0.805,4.039-1.482,8.621-2.035,13.744
				c-0.554,5.125-0.829,9.455-0.829,12.988c0,4.241,0.352,9.315,1.055,15.223c1.057,8.938,2.626,16.574,4.713,22.908
				c2.086,6.338,5.518,13.974,10.293,22.91L74.164,225.673z"/>
		</g>
		<g enable-background="new    ">
			<path fill="#010101" d="M14.832,193.509h-1.131c-3.619-3.887-6.475-7.75-8.562-11.588c-1.629-3.012-2.893-6.164-3.791-9.457
				C0.45,169.173,0,166.07,0,163.154c0-2.914,0.461-6.078,1.385-9.492c0.923-3.412,2.174-6.59,3.754-9.529
				c1.043-1.969,2.223-3.832,3.534-5.594c1.312-1.762,2.988-3.76,5.028-5.994h1.131l-0.617,1.129
				c-1.79,3.377-3.163,6.293-4.119,8.746c-0.955,2.455-1.699,5.029-2.23,7.727c-0.388,1.943-0.714,4.148-0.979,6.613
				c-0.267,2.467-0.399,4.55-0.399,6.25c0,2.041,0.169,4.482,0.508,7.324c0.508,4.301,1.264,7.976,2.268,11.023
				c1.004,3.048,2.655,6.725,4.953,11.023L14.832,193.509z"/>
		</g>
	</g>
	<path fill="#52CAF5" d="M125.885,113.747h27.998h27.998c0-4.046-0.162-7.486,0.055-10.904c0.191-3.081-0.797-4.483-4.037-4.14
		c-1.908,0.199-3.858,0.036-6.338,0.036c0-7.523,0-14.66,0-21.957c-2.401-0.284-4.285-0.507-6.459-0.759
		c-0.078-1.169-0.192-2.252-0.235-3.321h-10.982H142.9c-0.043,1.068-0.158,2.152-0.235,3.321c-2.175,0.252-4.058,0.475-6.46,0.759
		c0,7.297,0,14.434,0,21.957c-2.479,0-4.429,0.163-6.337-0.036c-3.241-0.343-4.229,1.059-4.037,4.14
		C126.047,106.261,125.885,109.701,125.885,113.747z"/>
	<path fill="#010101" d="M125.715,153.899h28.168h28.168h29.838h8.998c-0.002-2.657,0.002-8.094-7.34-8.094
		c-0.015,0-0.027,0-0.042,0c0.03-0.298,0.046-0.601,0.046-0.906v-2.25c0-4.972-4.029-9-9-9h-2.52
		c-0.034-3.907,0.461-7.819,0.428-11.729c-0.008-0.904-0.744-2.215-1.68-3.521h-46.896h-46.896c-0.936,1.309-1.672,2.617-1.68,3.521
		c-0.033,3.91,0.462,7.82,0.428,11.729h-2.52c-4.971,0-9,4.028-9,9v2.25c0,0.308,0.016,0.608,0.046,0.906c-0.014,0-0.027,0-0.042,0
		c-7.341,0-7.338,5.437-7.34,8.094h8.999H125.715z"/>
	<path fill="#010101" d="M159.053,67.702c-0.095-2.708-2.488-66.438-2.582-66.601c0-0.608-1.158-1.101-2.587-1.101
		c-1.429,0-2.587,0.493-2.587,1.101c-0.093,0.163-2.487,63.893-2.582,66.601H159.053z"/>
	<polygon fill="#010101" points="137.867,221.953 136.65,235.203 153.883,235.203 171.115,235.203 169.898,221.953 	"/>
	<path fill="#010101" d="M213.289,191.353h-59.406H94.477c-4.558,5.484-5.504,11.632-2.602,17.979
		c2.967,6.486,8.764,7.912,15.447,7.639c7.002-0.287,14.021-0.062,22.232-0.062h48.656c8.211,0,15.229-0.225,22.231,0.062
		c6.685,0.273,12.48-1.151,15.447-7.639C218.793,202.985,217.848,196.837,213.289,191.353z"/>
	<g>
		<rect x="126.706" y="158.55" fill="#52CAF5" width="11.338" height="28.15"/>
		<rect x="112.367" y="158.55" fill="#52CAF5" width="11.339" height="28.15"/>
		<path fill="#52CAF5" d="M86.878,158.55c0,6.177,0.007,12.195,0.044,18.209c0.008,0.964,0.435,2.013,0.924,2.875
			c1.344,2.369,2.724,4.721,4.108,7.066h3.074v-28.15H86.878z"/>
		<path fill="#52CAF5" d="M212.736,158.55v28.15h3.074c1.385-2.347,2.766-4.697,4.108-7.066c0.489-0.862,0.916-1.911,0.924-2.875
			c0.037-6.014,0.044-12.032,0.044-18.209H212.736L212.736,158.55z"/>
		<rect x="141.044" y="158.55" fill="#52CAF5" width="11.339" height="28.15"/>
		<rect x="98.028" y="158.55" fill="#52CAF5" width="11.339" height="28.15"/>
		<rect x="184.061" y="158.55" fill="#52CAF5" width="11.338" height="28.15"/>
		<rect x="198.398" y="158.55" fill="#52CAF5" width="11.338" height="28.15"/>
		<rect x="169.723" y="158.55" fill="#52CAF5" width="11.338" height="28.15"/>
		<rect x="155.383" y="158.55" fill="#52CAF5" width="11.34" height="28.15"/>
	</g>
</g>
</svg>
